<svg width="63" height="63" viewBox="0 0 63 63" fill="none" xmlns="http://www.w3.org/2000/svg">
<path d="M58.3836 5.25H4.61638C3.51657 5.25 2.625 6.14543 2.625 7.25V45.25C2.625 46.3546 3.51657 47.25 4.61638 47.25H58.3836C59.4834 47.25 60.375 46.3546 60.375 45.25V7.25C60.375 6.14543 59.4834 5.25 58.3836 5.25Z" fill="#5D62B5"/>
<path d="M27.5625 24.2812L21.6562 30.1875C21.4803 30.1001 21.3097 30.0054 21.1444 29.9033C20.1658 29.3093 19.3449 28.4882 18.7511 27.5095C18.1574 26.5309 17.8083 25.4235 17.7335 24.2812C17.7237 24.1274 17.7188 23.9724 17.7188 23.8161V21.3281H23.625L27.5625 24.2812Z" fill="#F3AF3E"/>
<path d="M25.5938 27.2344L23.1328 28.7109L21.1444 29.9033C20.1658 29.3093 19.3449 28.4882 18.7512 27.5095C18.1574 26.5309 17.8083 25.4235 17.7335 24.2812H22.7305L25.109 26.7348L25.5938 27.2344Z" fill="#5B3726"/>
<path d="M45.2812 21.3281V23.8161C45.2812 23.9724 45.2763 24.1274 45.2665 24.2812C45.1848 25.5224 44.7797 26.7206 44.0916 27.7567C43.4034 28.7928 42.4561 29.6309 41.3438 30.1875L35.4375 24.2812L39.375 21.3281H45.2812Z" fill="#F3AF3E"/>
<path d="M45.2665 24.2812C45.1968 25.3459 44.8889 26.3812 44.3654 27.3109C43.8419 28.2405 43.1162 29.0407 42.242 29.6522L39.375 28.2187L37.4062 27.2344L37.8911 26.7348L40.2695 24.2812H45.2665Z" fill="#5B3726"/>
<path d="M42.3281 32.1562V44.9531H20.6719V32.1562C20.6719 29.2845 21.8127 26.5303 23.8434 24.4996C25.874 22.4689 28.6282 21.3281 31.5 21.3281C34.3718 21.3281 37.126 22.4689 39.1566 24.4996C41.1873 26.5303 42.3281 29.2845 42.3281 32.1562Z" fill="#F3AF3E"/>
<path d="M26.2686 28.2844L29.2227 27.3008L29.8448 29.1692L26.8907 30.1529L26.2686 28.2844Z" fill="#D18D28"/>
<path d="M33.1573 29.1363L33.7795 27.2678L36.7336 28.2515L36.1114 30.12L33.1573 29.1363Z" fill="#D18D28"/>
<path d="M37.6305 35.8858L36.75 34.125C35.9699 34.5125 33.3195 36.6621 32.4849 36.4127V34.125H30.5162V36.4137C29.6815 36.6627 27.0301 34.5124 26.25 34.125L25.3694 35.8858C26.0452 36.222 28.5372 38.4862 29.2913 38.5193C30.0453 38.5525 30.7979 38.4273 31.5006 38.1518C32.2033 38.4272 32.9559 38.5523 33.7099 38.519C34.4639 38.4857 36.9548 36.2221 37.6305 35.8858Z" fill="#744630"/>
<path d="M23.625 42C23.6256 42.3456 23.5348 42.6852 23.3617 42.9844H20.6719V39.0469C21.4551 39.0469 22.2062 39.358 22.76 39.9118C23.3139 40.4656 23.625 41.2168 23.625 42Z" fill="#D18D28"/>
<path d="M42.3281 39.0469V42.9844H39.6383C39.4652 42.6852 39.3744 42.3456 39.375 42C39.375 41.2168 39.6861 40.4656 40.24 39.9118C40.7938 39.358 41.5449 39.0469 42.3281 39.0469Z" fill="#D18D28"/>
<path d="M20.6719 43.9688H18.7031C18.181 43.9688 17.6802 43.7613 17.311 43.3921C16.9418 43.0229 16.7344 42.5221 16.7344 42C16.7344 41.2168 17.0455 40.4656 17.5993 39.9118C18.1531 39.358 18.9043 39.0469 19.6875 39.0469C20.4707 39.0469 21.2219 39.358 21.7757 39.9118C22.3295 40.4656 22.6406 41.2168 22.6406 42C22.6406 42.5221 22.4332 43.0229 22.064 43.3921C21.6948 43.7613 21.194 43.9688 20.6719 43.9688Z" fill="#F3AF3E"/>
<path d="M44.2969 43.9688H42.3281C41.806 43.9688 41.3052 43.7613 40.936 43.3921C40.5668 43.0229 40.3594 42.5221 40.3594 42C40.3594 41.2168 40.6705 40.4656 41.2243 39.9118C41.7781 39.358 42.5293 39.0469 43.3125 39.0469C44.0957 39.0469 44.8469 39.358 45.4007 39.9118C45.9545 40.4656 46.2656 41.2168 46.2656 42C46.2656 42.5221 46.0582 43.0229 45.689 43.3921C45.3198 43.7613 44.819 43.9688 44.2969 43.9688Z" fill="#F3AF3E"/>
<path d="M31.5 35.1094C30.9779 35.1094 30.4771 34.902 30.1079 34.5327C29.7387 34.1635 29.5312 33.6628 29.5312 33.1406V31.1719H33.4688V33.1406C33.4688 33.6628 33.2613 34.1635 32.8921 34.5327C32.5229 34.902 32.0221 35.1094 31.5 35.1094Z" fill="#5B3726"/>
<path d="M40.3594 53.4844H22.6406L22.8092 53.3158C24.5912 51.5325 25.5927 49.1148 25.5938 46.5938H37.4062C37.4064 49.115 38.408 51.533 40.1908 53.3158L40.3594 53.4844Z" fill="#D9D9D9"/>
<path d="M58.3836 47.25H4.61638C4.08823 47.25 3.58172 47.0288 3.20826 46.6349C2.83481 46.2411 2.625 45.707 2.625 45.15V42H60.375V45.15C60.375 45.707 60.1652 46.2411 59.7917 46.6349C59.4183 47.0288 58.9118 47.25 58.3836 47.25Z" fill="#E4E4E2"/>
<path d="M22.6406 53.4844H40.3594C40.8815 53.4844 41.3823 53.6918 41.7515 54.061C42.1207 54.4302 42.3281 54.931 42.3281 55.4531V57.4219H20.6719V55.4531C20.6719 54.931 20.8793 54.4302 21.2485 54.061C21.6177 53.6918 22.1185 53.4844 22.6406 53.4844Z" fill="#E4E4E2"/>
<path d="M37.6127 48.5625H25.3867C25.5243 47.9153 25.5935 47.2554 25.5934 46.5938H37.4059C37.4058 47.2554 37.4751 47.9153 37.6127 48.5625Z" fill="#A8A8A8"/>
<circle cx="55.125" cy="10.5" r="2.625" fill="#62B58F"/>
</svg>
