<svg width="153" height="241" viewBox="0 0 153 241" fill="none" xmlns="http://www.w3.org/2000/svg">
<g clip-path="url(#clip0_12_63)">
<path fill-rule="evenodd" clip-rule="evenodd" d="M50 37.1914C50 33.0832 54.477 29.7531 60 29.7531C65.523 29.7531 70 33.0832 70 37.1914C70 41.2995 65.523 44.6296 60 44.6296C60 48.7378 55.523 52.0679 50 52.0679C44.477 52.0679 40 48.7378 40 44.6296C40 40.5215 44.477 37.1914 50 37.1914ZM10 7.43827C10 3.33011 14.477 0 20 0C25.523 0 30 3.33011 30 7.43827C30 11.5464 25.523 14.8765 20 14.8765C20 18.9847 15.523 22.3148 10 22.3148C4.477 22.3148 0 18.9847 0 14.8765C0 10.7684 4.477 7.43827 10 7.43827ZM20 13.3889C24.418 13.3889 28 10.7245 28 7.43827C28 4.15204 24.418 1.48765 20 1.48765C15.582 1.48765 12 4.15204 12 7.43827C12 10.7245 15.582 13.3889 20 13.3889ZM60 43.142C64.418 43.142 68 40.4776 68 37.1914C68 33.9051 64.418 31.2407 60 31.2407C55.582 31.2407 52 33.9051 52 37.1914C52 40.4776 55.582 43.142 60 43.142Z" fill="white" fill-opacity="0.1"/>
<path fill-rule="evenodd" clip-rule="evenodd" d="M132 37.1914C132 33.0832 136.477 29.7531 142 29.7531C147.523 29.7531 152 33.0832 152 37.1914C152 41.2995 147.523 44.6296 142 44.6296C142 48.7378 137.523 52.0679 132 52.0679C126.477 52.0679 122 48.7378 122 44.6296C122 40.5215 126.477 37.1914 132 37.1914ZM92 7.43827C92 3.33011 96.477 0 102 0C107.523 0 112 3.33011 112 7.43827C112 11.5464 107.523 14.8765 102 14.8765C102 18.9847 97.523 22.3148 92 22.3148C86.477 22.3148 82 18.9847 82 14.8765C82 10.7684 86.477 7.43827 92 7.43827ZM102 13.3889C106.418 13.3889 110 10.7245 110 7.43827C110 4.15204 106.418 1.48765 102 1.48765C97.582 1.48765 94 4.15204 94 7.43827C94 10.7245 97.582 13.3889 102 13.3889ZM142 43.142C146.418 43.142 150 40.4776 150 37.1914C150 33.9051 146.418 31.2407 142 31.2407C137.582 31.2407 134 33.9051 134 37.1914C134 40.4776 137.582 43.142 142 43.142Z" fill="white" fill-opacity="0.1"/>
<path fill-rule="evenodd" clip-rule="evenodd" d="M50 98.1852C50 94.077 54.477 90.7469 60 90.7469C65.523 90.7469 70 94.077 70 98.1852C70 102.293 65.523 105.623 60 105.623C60 109.732 55.523 113.062 50 113.062C44.477 113.062 40 109.732 40 105.623C40 101.515 44.477 98.1852 50 98.1852ZM10 68.4321C10 64.3239 14.477 60.9938 20 60.9938C25.523 60.9938 30 64.3239 30 68.4321C30 72.5403 25.523 75.8704 20 75.8704C20 79.9785 15.523 83.3087 10 83.3087C4.477 83.3087 0 79.9785 0 75.8704C0 71.7622 4.477 68.4321 10 68.4321ZM20 74.3827C24.418 74.3827 28 71.7183 28 68.4321C28 65.1459 24.418 62.4815 20 62.4815C15.582 62.4815 12 65.1459 12 68.4321C12 71.7183 15.582 74.3827 20 74.3827ZM60 104.136C64.418 104.136 68 101.471 68 98.1852C68 94.899 64.418 92.2346 60 92.2346C55.582 92.2346 52 94.899 52 98.1852C52 101.471 55.582 104.136 60 104.136Z" fill="white" fill-opacity="0.1"/>
<path fill-rule="evenodd" clip-rule="evenodd" d="M132 98.1852C132 94.077 136.477 90.7469 142 90.7469C147.523 90.7469 152 94.077 152 98.1852C152 102.293 147.523 105.623 142 105.623C142 109.732 137.523 113.062 132 113.062C126.477 113.062 122 109.732 122 105.623C122 101.515 126.477 98.1852 132 98.1852ZM92 68.4321C92 64.3239 96.477 60.9938 102 60.9938C107.523 60.9938 112 64.3239 112 68.4321C112 72.5403 107.523 75.8704 102 75.8704C102 79.9785 97.523 83.3087 92 83.3087C86.477 83.3087 82 79.9785 82 75.8704C82 71.7622 86.477 68.4321 92 68.4321ZM102 74.3827C106.418 74.3827 110 71.7183 110 68.4321C110 65.1459 106.418 62.4815 102 62.4815C97.582 62.4815 94 65.1459 94 68.4321C94 71.7183 97.582 74.3827 102 74.3827ZM142 104.136C146.418 104.136 150 101.471 150 98.1852C150 94.899 146.418 92.2346 142 92.2346C137.582 92.2346 134 94.899 134 98.1852C134 101.471 137.582 104.136 142 104.136Z" fill="white" fill-opacity="0.1"/>
<path fill-rule="evenodd" clip-rule="evenodd" d="M50 159.179C50 155.071 54.477 151.741 60 151.741C65.523 151.741 70 155.071 70 159.179C70 163.287 65.523 166.617 60 166.617C60 170.725 55.523 174.056 50 174.056C44.477 174.056 40 170.725 40 166.617C40 162.509 44.477 159.179 50 159.179ZM10 129.426C10 125.318 14.477 121.988 20 121.988C25.523 121.988 30 125.318 30 129.426C30 133.534 25.523 136.864 20 136.864C20 140.972 15.523 144.302 10 144.302C4.477 144.302 0 140.972 0 136.864C0 132.756 4.477 129.426 10 129.426ZM20 135.377C24.418 135.377 28 132.712 28 129.426C28 126.14 24.418 123.475 20 123.475C15.582 123.475 12 126.14 12 129.426C12 132.712 15.582 135.377 20 135.377ZM60 165.13C64.418 165.13 68 162.465 68 159.179C68 155.893 64.418 153.228 60 153.228C55.582 153.228 52 155.893 52 159.179C52 162.465 55.582 165.13 60 165.13Z" fill="white" fill-opacity="0.1"/>
<path fill-rule="evenodd" clip-rule="evenodd" d="M132 159.179C132 155.071 136.477 151.741 142 151.741C147.523 151.741 152 155.071 152 159.179C152 163.287 147.523 166.617 142 166.617C142 170.725 137.523 174.056 132 174.056C126.477 174.056 122 170.725 122 166.617C122 162.509 126.477 159.179 132 159.179ZM92 129.426C92 125.318 96.477 121.988 102 121.988C107.523 121.988 112 125.318 112 129.426C112 133.534 107.523 136.864 102 136.864C102 140.972 97.523 144.302 92 144.302C86.477 144.302 82 140.972 82 136.864C82 132.756 86.477 129.426 92 129.426ZM102 135.377C106.418 135.377 110 132.712 110 129.426C110 126.14 106.418 123.475 102 123.475C97.582 123.475 94 126.14 94 129.426C94 132.712 97.582 135.377 102 135.377ZM142 165.13C146.418 165.13 150 162.465 150 159.179C150 155.893 146.418 153.228 142 153.228C137.582 153.228 134 155.893 134 159.179C134 162.465 137.582 165.13 142 165.13Z" fill="white" fill-opacity="0.1"/>
<path fill-rule="evenodd" clip-rule="evenodd" d="M50 220.173C50 216.065 54.477 212.735 60 212.735C65.523 212.735 70 216.065 70 220.173C70 224.281 65.523 227.611 60 227.611C60 231.719 55.523 235.049 50 235.049C44.477 235.049 40 231.719 40 227.611C40 223.503 44.477 220.173 50 220.173ZM10 190.42C10 186.312 14.477 182.981 20 182.981C25.523 182.981 30 186.312 30 190.42C30 194.528 25.523 197.858 20 197.858C20 201.966 15.523 205.296 10 205.296C4.477 205.296 0 201.966 0 197.858C0 193.75 4.477 190.42 10 190.42ZM20 196.37C24.418 196.37 28 193.706 28 190.42C28 187.133 24.418 184.469 20 184.469C15.582 184.469 12 187.133 12 190.42C12 193.706 15.582 196.37 20 196.37ZM60 226.123C64.418 226.123 68 223.459 68 220.173C68 216.887 64.418 214.222 60 214.222C55.582 214.222 52 216.887 52 220.173C52 223.459 55.582 226.123 60 226.123Z" fill="white" fill-opacity="0.1"/>
<path fill-rule="evenodd" clip-rule="evenodd" d="M132 220.173C132 216.065 136.477 212.735 142 212.735C147.523 212.735 152 216.065 152 220.173C152 224.281 147.523 227.611 142 227.611C142 231.719 137.523 235.049 132 235.049C126.477 235.049 122 231.719 122 227.611C122 223.503 126.477 220.173 132 220.173ZM92 190.42C92 186.312 96.477 182.981 102 182.981C107.523 182.981 112 186.312 112 190.42C112 194.528 107.523 197.858 102 197.858C102 201.966 97.523 205.296 92 205.296C86.477 205.296 82 201.966 82 197.858C82 193.75 86.477 190.42 92 190.42ZM102 196.37C106.418 196.37 110 193.706 110 190.42C110 187.133 106.418 184.469 102 184.469C97.582 184.469 94 187.133 94 190.42C94 193.706 97.582 196.37 102 196.37ZM142 226.123C146.418 226.123 150 223.459 150 220.173C150 216.887 146.418 214.222 142 214.222C137.582 214.222 134 216.887 134 220.173C134 223.459 137.582 226.123 142 226.123Z" fill="white" fill-opacity="0.1"/>
</g>
<defs>
<clipPath id="clip0_12_63">
<rect width="153" height="241" fill="white"/>
</clipPath>
</defs>
</svg>
