<svg width="63" height="63" viewBox="0 0 63 63" fill="none" xmlns="http://www.w3.org/2000/svg">
<path d="M60.0469 26.2248V27.6121C60.0469 31.9739 59.06 36.2679 57.1744 40.1105C55.2888 43.9531 52.5632 47.2248 49.2409 49.6333L38.3906 57.499L34.4531 60.353L31.5 62.4945L30.5156 61.7888L27.5625 59.6701L26.1475 58.6559L15.5371 51.0475L14.143 50.0481L13.8588 49.8434C10.5087 47.4409 7.75774 44.1634 5.85386 40.3065C3.94998 36.4496 2.9531 32.1347 2.95313 27.7508V24.6355C2.9532 21.2131 3.84488 17.8617 5.52357 14.9744C6.84733 12.6968 8.67475 10.8216 10.8366 9.52244C12.9984 8.22332 15.4248 7.5423 17.891 7.54245H18.2638C20.5397 7.54256 22.7843 8.12268 24.8198 9.23684C26.8554 10.351 28.626 11.9686 29.9914 13.9616L31.5 16.1624L33.0086 13.9616C34.4598 11.8434 36.3674 10.1511 38.5612 9.03579C40.755 7.92045 43.1669 7.41667 45.5818 7.56936C47.9966 7.72205 50.3395 8.52646 52.4014 9.91088C54.4632 11.2953 56.1801 13.2167 57.3989 15.5038C59.1324 18.7582 60.0461 22.4577 60.0469 26.2248V26.2248Z" fill="#5D62B5"/>
<path d="M34.4531 51.1808V60.3395V60.353L38.3906 57.499V47.8137L34.4531 51.1808Z" fill="#EA9D2D"/>
<path d="M44.2968 22.6273V25.321C44.2969 25.6748 44.2333 26.0251 44.1097 26.352C43.9861 26.6789 43.8048 26.9759 43.5762 27.226C43.3477 27.4762 43.0764 27.6746 42.7778 27.8099C42.4791 27.9453 42.1591 28.0149 41.8359 28.0148H39.3749V34.4797L39.0147 35.5588L39.6383 36.6347L40.1182 40.5729C40.2362 41.5369 40.2733 42.5107 40.2289 43.4822C40.145 45.3286 39.4977 47.0909 38.3906 48.4871L34.4531 51.7196V60.353L31.5 62.4945L30.5156 61.7887V53.8746L26.1474 58.6559L15.5371 51.0475L23.6249 38.7897L25.5937 35.5572L28.1715 32.7355L29.475 32.3863L29.5312 31.2472V28.2464C29.5314 25.3381 30.587 22.5489 32.4659 20.4925C33.1084 19.79 33.9793 19.3952 34.8874 19.3948H37.0186C37.8974 19.395 38.7401 19.7773 39.3614 20.4575L41.3437 22.6273H44.2968Z" fill="#FBB540"/>
<path d="M35.4375 22.6273H37.4062V24.7823H35.4375V22.6273Z" fill="#985713"/>
<path d="M39.6385 36.6347H38.2185C36.2373 36.6319 34.2836 36.1271 32.5103 35.1599L28.1717 32.7356L29.5314 31.2473V31.0762L33.3987 33.2366C34.8961 34.0527 36.5458 34.4782 38.2185 34.4797H39.3752L39.6385 36.6347Z" fill="#5D62B5"/>
<path d="M31.745 32.3248H29.5312V30.1698H31.745C31.941 30.1695 32.129 30.0842 32.2676 29.9324C32.4062 29.7806 32.4842 29.5749 32.4844 29.3603V25.8598H34.4531V29.3603C34.4523 30.1462 34.1667 30.8997 33.659 31.4555C33.1513 32.0112 32.463 32.3238 31.745 32.3248V32.3248Z" fill="#985713"/>
<path d="M31.5001 38.7897V40.9447C31.5 41.8019 31.1888 42.624 30.635 43.2301C30.0812 43.8363 29.3302 44.1769 28.547 44.1772V48.0965C28.5474 49.054 28.2883 49.99 27.8026 50.7862L26.5783 52.7971V56.0296L26.9363 56.8134L27.2341 57.4667L27.5626 58.1845V59.6701L26.1476 58.6559L15.5373 51.0475L14.1432 50.0481L19.6876 40.9447V37.5721C19.6876 37.49 19.6889 37.4065 19.6913 37.3243C19.7537 35.7485 20.2999 34.2418 21.2417 33.048L22.6408 31.2473L23.6251 35.5572H25.9822C26.4684 35.5572 26.9469 35.6886 27.3755 35.9398C27.804 36.191 28.1693 36.5542 28.4387 36.997C28.775 37.5484 29.2303 38.0005 29.7643 38.3132C30.2983 38.6259 30.8945 38.7895 31.5001 38.7897Z" fill="#E4E4E2"/>
<path d="M24.6094 38.7897H26.5781V40.9447H24.6094V38.7897Z" fill="#29C3BE"/>
</svg>
