<svg width="63" height="63" viewBox="0 0 63 63" fill="none" xmlns="http://www.w3.org/2000/svg">
<path d="M48.2344 54.1406V45.2812H54.1406V56.1094C54.1406 57.1537 53.7258 58.1552 52.9874 58.8936C52.2489 59.632 51.2474 60.0469 50.2031 60.0469H48.2344V54.1406Z" fill="#F6BB92"/>
<path d="M52.8789 39.375L53.8269 37.0417L54.6677 34.9721C55.1181 33.8593 55.2393 32.6324 55.0157 31.4477C54.7921 30.2631 54.2339 29.1745 53.4123 28.3208C52.3157 27.1813 51.6997 25.6359 51.6998 24.0246V18.375H27.0505V24.025C27.0505 25.6364 26.4345 27.1817 25.3379 28.3213C24.5163 29.1748 23.9581 30.2633 23.7344 31.4479C23.5107 32.6324 23.6317 33.8593 24.082 34.9721L24.972 37.1715L52.8789 39.375Z" fill="#834B10"/>
<path d="M54.1406 40.4409C54.1406 39.0428 53.6447 37.69 52.741 36.6232C51.8373 35.5564 50.5844 34.8448 49.2053 34.615L48.2344 34.4532L43.1507 33.6059L39.375 37.4063L35.5596 33.5766L28.5469 34.4532V60.0469H48.2344V52.1719C49.1248 51.2811 49.687 50.1148 49.8292 48.8633C49.9713 47.6119 49.6851 46.3492 49.0172 45.2813H54.1406V40.4409Z" fill="#5D62B5"/>
<path d="M52.5 23.625H26.25V16.2132C26.25 12.6094 27.6328 9.15319 30.0942 6.6049C32.5556 4.05661 35.894 2.625 39.375 2.625C42.856 2.625 46.1944 4.05661 48.6558 6.6049C51.1172 9.15319 52.5 12.6094 52.5 16.2132V23.625Z" fill="#834B10"/>
<path d="M47.25 16.7344V15.75L46.2656 10.8281H32.4844L31.5 15.75V16.7344C30.7168 16.7344 29.9656 17.0455 29.4118 17.5993C28.858 18.1531 28.5469 18.9043 28.5469 19.6875C28.5469 20.4707 28.858 24.3837 29.4118 24.9375C29.9656 25.4913 29.6863 24.7763 30.4695 24.7763L30.1875 24.9375H31.5C31.5 26.765 33.2103 27.2052 34.5026 28.4974C35.7948 29.7897 37.5475 30.5156 39.375 30.5156C41.2025 30.5156 42.9552 29.7897 44.2474 28.4974C45.5397 27.2052 46.2656 26.6038 46.2656 24.7763L47.25 24.9375H48.5625C49.3457 24.9375 48.7844 25.3302 49.3382 24.7763C49.892 24.2225 50.2031 20.4707 50.2031 19.6875C50.2031 18.9043 49.892 18.1531 49.3382 17.5993C48.7844 17.0455 48.0332 16.7344 47.25 16.7344Z" fill="#F6BB92"/>
<path d="M38.3906 41.1654V60.0469H16.3652C17.0995 58.9039 17.9542 57.8429 18.9148 56.8821L18.9874 56.8095C20.7474 55.0524 22.1554 52.975 23.1353 50.6892C23.5216 49.7885 23.9068 48.8878 24.1873 48.2344C24.442 47.6401 24.6094 47.25 24.6094 47.25H21.7768C20.8989 47.2493 20.0464 46.9555 19.3545 46.4151C18.6626 45.8748 18.1709 45.1189 17.9575 44.2674L17.4727 42.3282L17.3459 41.8212C17.2734 41.531 17.2679 41.228 17.33 40.9354C17.392 40.6427 17.52 40.3681 17.7041 40.1323C17.8881 39.8965 18.1236 39.7057 18.3924 39.5745C18.6612 39.4433 18.9565 39.3751 19.2556 39.375H22.6406C23.2753 37.4691 24.5712 35.8532 26.2939 34.8198L26.7246 34.5627C27.8317 33.8987 29.0883 33.5246 30.3783 33.4749C31.6683 33.4252 32.95 33.7016 34.1049 34.2784L34.148 34.3006C35.4228 34.938 36.495 35.9179 37.2443 37.1304C37.9937 38.3428 38.3906 39.74 38.3906 41.1654Z" fill="#4B4B4B"/>
<path d="M38.3906 41.3438V44.1369C38.3906 44.7567 38.1956 45.3608 37.8332 45.8636C37.4707 46.3664 36.9593 46.7425 36.3713 46.9384C35.7652 47.1405 35.1098 47.1405 34.5037 46.9384C33.9157 46.7425 33.4043 46.3664 33.0418 45.8636C32.6794 45.3608 32.4844 44.7567 32.4844 44.1369V39.375H36.4219L38.3906 41.3438Z" fill="black"/>
<path d="M29.2431 45.9777L27.2744 47.9464C27.0896 48.1309 26.8391 48.2345 26.5779 48.2344H24.1871C24.4418 47.6401 24.6092 47.25 24.6092 47.25H21.7767C20.818 47.2509 19.8923 46.9007 19.1742 46.2656H26.1707L27.8502 44.5848C28.035 44.4001 28.2855 44.2963 28.5467 44.2963C28.8079 44.2963 29.0584 44.4001 29.2431 44.5848C29.4278 44.7695 29.5316 45.02 29.5316 45.2813C29.5316 45.5425 29.4278 45.793 29.2431 45.9777V45.9777Z" fill="black"/>
<path d="M20.6719 39.375V40.5647C20.6719 41.0324 20.4861 41.4809 20.1554 41.8116C19.8247 42.1423 19.3762 42.3281 18.9085 42.3281H17.4727L17.3459 41.8212C17.2734 41.5309 17.2679 41.228 17.33 40.9354C17.392 40.6427 17.52 40.3681 17.7041 40.1322C17.8881 39.8964 18.1236 39.7057 18.3924 39.5745C18.6612 39.4433 18.9565 39.375 19.2556 39.375H20.6719Z" fill="black"/>
<path d="M23.7251 57.6154C23.5424 57.6153 23.3633 57.5643 23.2079 57.4681C23.0525 57.372 22.9269 57.2344 22.8452 57.0709C22.7636 56.9075 22.729 56.7245 22.7455 56.5425C22.7619 56.3605 22.8287 56.1866 22.9384 56.0404C24.1124 54.4759 25.0261 52.7321 25.6442 50.8763C25.6841 50.7525 25.7482 50.6378 25.8327 50.5389C25.9172 50.44 26.0205 50.3589 26.1365 50.3001C26.2526 50.2414 26.3791 50.2062 26.5089 50.1967C26.6386 50.1871 26.769 50.2034 26.8924 50.2446C27.0158 50.2857 27.1298 50.3509 27.2279 50.4364C27.3259 50.5218 27.4061 50.6259 27.4637 50.7425C27.5213 50.8592 27.5552 50.9861 27.5634 51.1159C27.5717 51.2457 27.5541 51.3759 27.5118 51.4989C26.8269 53.5555 25.8144 55.4879 24.5134 57.2217C24.4217 57.3441 24.3027 57.4435 24.1658 57.5118C24.029 57.5802 23.8781 57.6157 23.7251 57.6154V57.6154Z" fill="black"/>
<path d="M31.5 16.7344C32.4254 16.426 33.2725 15.9196 33.9823 15.2504C34.6921 14.5812 35.2474 13.7654 35.6098 12.8598L36.4219 10.8281L31.5 9.84375V16.7344Z" fill="#834B10"/>
<path d="M36.4219 10.8281L36.5372 11.001C37.7129 12.7647 39.3059 14.2107 41.1747 15.2109C43.0435 16.2111 45.1304 16.7344 47.25 16.7344V9.84375L36.4219 10.8281Z" fill="#834B10"/>
<path d="M35.3555 20.8359C36.035 20.8359 36.5859 20.285 36.5859 19.6055C36.5859 18.9259 36.035 18.375 35.3555 18.375C34.6759 18.375 34.125 18.9259 34.125 19.6055C34.125 20.285 34.6759 20.8359 35.3555 20.8359Z" fill="black"/>
<path d="M40.6055 20.8359C41.285 20.8359 41.8359 20.285 41.8359 19.6055C41.8359 18.9259 41.285 18.375 40.6055 18.375C39.9259 18.375 39.375 18.9259 39.375 19.6055C39.375 20.285 39.9259 20.8359 40.6055 20.8359Z" fill="black"/>
<path d="M45.2812 42.3281C45.0202 42.3281 44.7698 42.2244 44.5852 42.0398C44.4006 41.8552 44.2969 41.6048 44.2969 41.3438V34.4531C44.2969 34.1921 44.4006 33.9417 44.5852 33.7571C44.7698 33.5725 45.0202 33.4688 45.2812 33.4688C45.5423 33.4688 45.7927 33.5725 45.9773 33.7571C46.1619 33.9417 46.2656 34.1921 46.2656 34.4531V41.3438C46.2656 41.6048 46.1619 41.8552 45.9773 42.0398C45.7927 42.2244 45.5423 42.3281 45.2812 42.3281Z" fill="#C3C3C3"/>
<path d="M45.2812 47.25C46.9122 47.25 48.2344 45.9278 48.2344 44.2969C48.2344 42.6659 46.9122 41.3438 45.2812 41.3438C43.6503 41.3438 42.3281 42.6659 42.3281 44.2969C42.3281 45.9278 43.6503 47.25 45.2812 47.25Z" fill="#E4E4E2"/>
<path d="M45.2812 45.2812C45.8249 45.2812 46.2656 44.8405 46.2656 44.2969C46.2656 43.7532 45.8249 43.3125 45.2812 43.3125C44.7376 43.3125 44.2969 43.7532 44.2969 44.2969C44.2969 44.8405 44.7376 45.2812 45.2812 45.2812Z" fill="#C3C3C3"/>
<path d="M49.2188 60.0469H34.4531C33.6699 60.0469 32.9188 59.7357 32.365 59.1819C31.8111 58.6281 31.5 57.877 31.5 57.0938C31.5 56.3105 31.8111 55.5594 32.365 55.0056C32.9188 54.4518 33.6699 54.1406 34.4531 54.1406H35.4375C35.4375 53.6185 35.6449 53.1177 36.0141 52.7485C36.3833 52.3793 36.8841 52.1719 37.4062 52.1719H37.5752C38.0973 52.1719 38.598 52.3793 38.9672 52.7485L40.3594 54.1406H49.2188V60.0469Z" fill="#F6BB92"/>
<path d="M16.4747 55.4772C16.3292 55.7994 16.255 56.1491 16.2571 56.5026C16.2592 56.8561 16.3376 57.2049 16.4869 57.5253C16.6362 57.8457 16.8529 58.1301 17.1222 58.3591C17.3915 58.5881 17.7071 58.7562 18.0473 58.852L21.8365 59.9225C22.5901 60.1355 23.3976 60.0404 24.0811 59.6581C24.7647 59.2757 25.2683 58.6375 25.4813 57.8839C25.6943 57.1302 25.5991 56.3229 25.2168 55.6394C24.8345 54.9559 24.1963 54.4522 23.4427 54.2392L22.4952 53.9716C22.5656 53.7228 22.5862 53.4626 22.556 53.2058C22.5257 52.949 22.4452 52.7007 22.319 52.4751C22.1928 52.2494 22.0234 52.0509 21.8205 51.8907C21.6175 51.7305 21.385 51.6119 21.1362 51.5415L20.9736 51.4956C20.7248 51.4253 20.4646 51.4047 20.2079 51.435C19.9511 51.4652 19.7028 51.5458 19.4772 51.672C18.3612 52.2962 17.4749 53.262 16.9487 54.4274L16.4747 55.4772Z" fill="#F6BB92"/>
<path d="M11.4496 23.625C12.3914 23.6251 13.2946 24.059 13.9606 24.8313L15.7498 26.9064L17.5389 24.8313C18.2049 24.059 19.1081 23.6251 20.0499 23.625C20.8419 23.625 21.6113 23.932 22.2356 24.4974C22.8598 25.0627 23.3033 25.8538 23.4953 26.745C23.7126 27.7525 23.6558 28.8133 23.3329 29.7821C23.01 30.7508 22.4367 31.58 21.6916 32.1561L15.75 36.75L9.8084 32.1561C9.06327 31.58 8.48997 30.7508 8.16706 29.7821C7.84416 28.8133 7.78745 27.7525 8.0047 26.745C8.19674 25.8539 8.64009 25.0628 9.26427 24.4975C9.88845 23.9322 10.6576 23.6251 11.4496 23.625V23.625Z" fill="#5D62B5"/>
<path d="M31.5 16.7344H32.4844V22.6406H31.5V16.7344Z" fill="#EEB58E"/>
<path d="M46.2656 16.7344H47.25V22.6406H46.2656V16.7344Z" fill="#EEB58E"/>
<path d="M35.5597 33.5765L39.3752 37.4062L43.1509 33.6058C42.921 33.5675 42.7122 33.4489 42.5616 33.2711C42.411 33.0933 42.3283 32.8679 42.3283 32.6349V29.5312H36.422V32.5998C36.422 32.8397 36.3344 33.0714 36.1756 33.2512C36.0168 33.4311 35.7978 33.5468 35.5597 33.5765V33.5765Z" fill="#F6BB92"/>
<path d="M39.375 31.5C36.5902 31.5 33.9195 30.532 31.9504 28.809C29.9812 27.0861 28.875 24.7492 28.875 22.3125V21H49.875V22.3125C49.875 24.7492 48.7688 27.0861 46.7996 28.809C44.8305 30.532 42.1598 31.5 39.375 31.5Z" fill="#5D62B5"/>
<path d="M27.5625 41.3438C28.1062 41.3438 28.5469 40.903 28.5469 40.3594C28.5469 39.8157 28.1062 39.375 27.5625 39.375C27.0188 39.375 26.5781 39.8157 26.5781 40.3594C26.5781 40.903 27.0188 41.3438 27.5625 41.3438Z" fill="black"/>
</svg>
